<svg width="200" height="60" viewBox="0 0 200 60" fill="none" xmlns="http://www.w3.org/2000/svg">
<g clip-path="url(#clip0_42_520)">
<path d="M13.3754 0.999997H24.8954V28.024H28.9754C30.4474 28.024 31.4394 27.832 31.9514 27.448C32.4954 27.064 32.7674 26.232 32.7674 24.952V0.999997H44.2874V21.208C44.2874 24.28 44.0794 26.872 43.6634 28.984C43.2794 31.096 42.5114 32.824 41.3594 34.168C40.2394 35.48 38.6714 36.424 36.6554 37C34.6394 37.576 32.0314 37.864 28.8314 37.864C25.6314 37.864 23.0234 37.576 21.0074 37C18.9914 36.424 17.4074 35.48 16.2554 34.168C15.1354 32.856 14.3674 31.144 13.9514 29.032C13.5674 26.888 13.3754 24.28 13.3754 21.208V0.999997ZM74.3133 25L80.5533 37H67.8813L63.1773 26.296H60.6813V37H49.1613V0.999997H67.3053C75.5613 0.999997 79.6893 5.208 79.6893 13.624C79.6893 19.384 77.8973 23.176 74.3133 25ZM63.3213 10.216H60.6813V17.416H63.3213C64.7293 17.416 65.7373 17.272 66.3453 16.984C66.9853 16.696 67.3053 16.04 67.3053 15.016V12.616C67.3053 11.592 66.9853 10.936 66.3453 10.648C65.7373 10.36 64.7293 10.216 63.3213 10.216ZM105.287 37H84.5988V0.999997H103.271C106.727 0.999997 109.191 1.672 110.663 3.016C112.135 4.36 112.871 6.312 112.871 8.872C112.871 11.464 112.407 13.464 111.479 14.872C110.551 16.248 109.287 17.16 107.687 17.608V17.944C112.327 18.744 114.647 21.912 114.647 27.448C114.647 30.328 113.879 32.648 112.343 34.408C110.839 36.136 108.487 37 105.287 37ZM100.631 22.648H96.1188V28.552H100.535C102.167 28.552 102.983 27.56 102.983 25.576C102.983 23.624 102.199 22.648 100.631 22.648ZM99.7668 8.872H96.1188V14.248H99.6708C101.143 14.248 101.879 13.352 101.879 11.56C101.879 9.768 101.175 8.872 99.7668 8.872ZM128.565 31.288L127.269 37H115.125L124.437 0.999997H142.245L151.557 37H139.413L138.069 31.288H128.565ZM133.653 12.04H133.029L130.677 22.12H135.957L133.653 12.04ZM185.754 37H174.906L166.122 24.232C165.962 24.008 165.834 23.672 165.738 23.224C165.642 22.776 165.578 22.184 165.546 21.448H165.306V37H153.786V0.999997H164.634L173.418 13.768C173.578 13.992 173.706 14.328 173.802 14.776C173.898 15.224 173.962 15.816 173.994 16.552H174.234V0.999997H185.754V37Z" fill="white"/>
<path d="M29.2936 36.064H30.2936V35.064H29.2936V36.064ZM29.2936 44.656V45.656H30.2936V44.656H29.2936ZM19.5016 44.656V43.656H18.5016V44.656H19.5016ZM19.5016 58V59H20.5016V58H19.5016ZM7.98156 58H6.98156V59H7.98156V58ZM7.98156 22V21H6.98156V22H7.98156ZM31.5976 22L32.5856 22.1544L32.7659 21H31.5976V22ZM30.1576 31.216V32.216H31.0134L31.1456 31.3704L30.1576 31.216ZM19.5016 31.216V30.216H18.5016V31.216H19.5016ZM19.5016 36.064H18.5016V37.064H19.5016V36.064ZM28.2936 36.064V44.656H30.2936V36.064H28.2936ZM29.2936 43.656H19.5016V45.656H29.2936V43.656ZM18.5016 44.656V58H20.5016V44.656H18.5016ZM19.5016 57H7.98156V59H19.5016V57ZM8.98156 58V22H6.98156V58H8.98156ZM7.98156 23H31.5976V21H7.98156V23ZM30.6096 21.8456L29.1696 31.0616L31.1456 31.3704L32.5856 22.1544L30.6096 21.8456ZM30.1576 30.216H19.5016V32.216H30.1576V30.216ZM18.5016 31.216V36.064H20.5016V31.216H18.5016ZM19.5016 37.064H29.2936V35.064H19.5016V37.064ZM47.3633 52.288V51.288H46.5648L46.3881 52.0667L47.3633 52.288ZM46.0673 58V59H46.8658L47.0425 58.2213L46.0673 58ZM33.9233 58L32.9552 57.7496L32.6317 59H33.9233V58ZM43.2353 22V21H42.4611L42.2672 21.7496L43.2353 22ZM61.0433 22L62.0114 21.7496L61.8176 21H61.0433V22ZM70.3553 58V59H71.6469L71.3234 57.7496L70.3553 58ZM58.2113 58L57.2379 58.229L57.4193 59H58.2113V58ZM56.8673 52.288L57.8407 52.059L57.6593 51.288H56.8673V52.288ZM52.4513 33.04L53.4262 32.8172L53.2485 32.04H52.4513V33.04ZM51.8273 33.04V32.04H51.0338L50.8535 32.8128L51.8273 33.04ZM49.4753 43.12L48.5015 42.8928L48.2151 44.12H49.4753V43.12ZM54.7553 43.12V44.12H56.0097L55.7302 42.8972L54.7553 43.12ZM46.3881 52.0667L45.0921 57.7787L47.0425 58.2213L48.3385 52.5093L46.3881 52.0667ZM46.0673 57H33.9233V59H46.0673V57ZM34.8914 58.2504L44.2034 22.2504L42.2672 21.7496L32.9552 57.7496L34.8914 58.2504ZM43.2353 23H61.0433V21H43.2353V23ZM60.0752 22.2504L69.3872 58.2504L71.3234 57.7496L62.0114 21.7496L60.0752 22.2504ZM70.3553 57H58.2113V59H70.3553V57ZM59.1847 57.771L57.8407 52.059L55.8939 52.517L57.2379 58.229L59.1847 57.771ZM56.8673 51.288H47.3633V53.288H56.8673V51.288ZM52.4513 32.04H51.8273V34.04H52.4513V32.04ZM50.8535 32.8128L48.5015 42.8928L50.4492 43.3472L52.8012 33.2672L50.8535 32.8128ZM49.4753 44.12H54.7553V42.12H49.4753V44.12ZM55.7302 42.8972L53.4262 32.8172L51.4765 33.2628L53.7805 43.3428L55.7302 42.8972ZM74.9847 58H73.9847V59H74.9847V58ZM74.9847 22V21H73.9847V22H74.9847ZM101.049 24.016L100.374 24.7545V24.7545L101.049 24.016ZM101.865 35.872L102.694 36.4312L102.7 36.4223L101.865 35.872ZM98.0727 38.608L97.8031 37.645L97.0727 37.8495V38.608H98.0727ZM98.0727 38.944H97.0727V39.7863L97.9028 39.9295L98.0727 38.944ZM102.729 55.408L101.975 54.7505L101.974 54.7515L102.729 55.408ZM86.5047 43.648V42.648H85.5047V43.648H86.5047ZM86.5047 49.552H85.5047V50.552H86.5047V49.552ZM86.5047 29.872V28.872H85.5047V29.872H86.5047ZM86.5047 35.248H85.5047V36.248H86.5047V35.248ZM95.6727 57H74.9847V59H95.6727V57ZM75.9847 58V22H73.9847V58H75.9847ZM74.9847 23H93.6567V21H74.9847V23ZM93.6567 23C97.0311 23 99.1814 23.6652 100.374 24.7545L101.723 23.2775C99.972 21.6788 97.1943 21 93.6567 21V23ZM100.374 24.7545C101.584 25.8585 102.257 27.5081 102.257 29.872H104.257C104.257 27.1159 103.458 24.8615 101.723 23.2775L100.374 24.7545ZM102.257 29.872C102.257 32.3659 101.807 34.1429 101.03 35.3217L102.7 36.4223C103.779 34.7851 104.257 32.5621 104.257 29.872H102.257ZM101.036 35.3129C100.24 36.4919 99.1749 37.2609 97.8031 37.645L98.3423 39.571C100.171 39.0591 101.633 38.0041 102.694 36.4311L101.036 35.3129ZM97.0727 38.608V38.944H99.0727V38.608H97.0727ZM97.9028 39.9295C100.022 40.2948 101.509 41.1764 102.486 42.5108C103.478 43.8659 104.033 45.808 104.033 48.448H106.033C106.033 45.552 105.427 43.1421 104.099 41.3292C102.757 39.4956 100.764 38.3932 98.2426 37.9585L97.9028 39.9295ZM104.033 48.448C104.033 51.1448 103.318 53.2124 101.975 54.7505L103.482 56.0655C105.212 54.0836 106.033 51.5112 106.033 48.448H104.033ZM101.974 54.7515C100.727 56.1851 98.7027 57 95.6727 57V59C99.0427 59 101.723 58.0869 103.483 56.0645L101.974 54.7515ZM91.0167 42.648H86.5047V44.648H91.0167V42.648ZM85.5047 43.648V49.552H87.5047V43.648H85.5047ZM86.5047 50.552H90.9207V48.552H86.5047V50.552ZM90.9207 50.552C91.9479 50.552 92.8815 50.2304 93.529 49.4433C94.1457 48.6936 94.3687 47.6798 94.3687 46.576H92.3687C92.3687 47.4562 92.1837 47.9304 91.9844 48.1727C91.8158 48.3776 91.5255 48.552 90.9207 48.552V50.552ZM94.3687 46.576C94.3687 45.4924 94.1554 44.4946 93.5603 43.7537C92.9316 42.9711 92.02 42.648 91.0167 42.648V44.648C91.5814 44.648 91.8458 44.8129 92.0011 45.0063C92.19 45.2414 92.3687 45.7076 92.3687 46.576H94.3687ZM90.1527 28.872H86.5047V30.872H90.1527V28.872ZM85.5047 29.872V35.248H87.5047V29.872H85.5047ZM86.5047 36.248H90.0567V34.248H86.5047V36.248ZM90.0567 36.248C91.0044 36.248 91.8781 35.9501 92.4854 35.2107C93.0618 34.5091 93.2647 33.5676 93.2647 32.56H91.2647C91.2647 33.3444 91.0996 33.7469 90.94 33.9413C90.8113 34.0979 90.581 34.248 90.0567 34.248V36.248ZM93.2647 32.56C93.2647 31.5603 93.0729 30.6261 92.523 29.9262C91.937 29.1804 91.0837 28.872 90.1527 28.872V30.872C90.6297 30.872 90.8324 31.0116 90.9504 31.1618C91.1045 31.3579 91.2647 31.7677 91.2647 32.56H93.2647ZM136.615 46L136.161 45.1088L135.262 45.5663L135.728 46.4614L136.615 46ZM142.855 58V59H144.502L143.742 57.5386L142.855 58ZM130.183 58L129.267 58.4023L129.53 59H130.183V58ZM125.479 47.296L126.394 46.8937L126.132 46.296H125.479V47.296ZM122.983 47.296V46.296H121.983V47.296H122.983ZM122.983 58V59H123.983V58H122.983ZM111.463 58H110.463V59H111.463V58ZM111.463 22V21H110.463V22H111.463ZM122.983 31.216V30.216H121.983V31.216H122.983ZM122.983 38.416H121.983V39.416H122.983V38.416ZM128.647 37.984L128.236 37.0721L128.228 37.0761L128.219 37.0803L128.647 37.984ZM128.647 31.648L128.219 32.5517L128.228 32.5559L128.236 32.5599L128.647 31.648ZM135.728 46.4614L141.968 58.4614L143.742 57.5386L137.502 45.5386L135.728 46.4614ZM142.855 57H130.183V59H142.855V57ZM131.098 57.5977L126.394 46.8937L124.563 47.6983L129.267 58.4023L131.098 57.5977ZM125.479 46.296H122.983V48.296H125.479V46.296ZM121.983 47.296V58H123.983V47.296H121.983ZM122.983 57H111.463V59H122.983V57ZM112.463 58V22H110.463V58H112.463ZM111.463 23H129.607V21H111.463V23ZM129.607 23C133.576 23 136.37 24.0101 138.181 25.8563C139.995 27.706 140.991 30.5654 140.991 34.624H142.991C142.991 30.2666 141.922 26.814 139.609 24.4557C137.292 22.0939 133.894 21 129.607 21V23ZM140.991 34.624C140.991 40.1922 139.272 43.5255 136.161 45.1088L137.068 46.8912C141.125 44.8265 142.991 40.5758 142.991 34.624H140.991ZM125.623 30.216H122.983V32.216H125.623V30.216ZM121.983 31.216V38.416H123.983V31.216H121.983ZM122.983 39.416H125.623V37.416H122.983V39.416ZM125.623 39.416C127.052 39.416 128.253 39.2773 129.075 38.8877L128.219 37.0803C127.825 37.2667 127.01 37.416 125.623 37.416V39.416ZM129.057 38.8959C130.213 38.3756 130.607 37.2255 130.607 36.016H128.607C128.607 36.8545 128.36 37.0164 128.236 37.0721L129.057 38.8959ZM130.607 36.016V33.616H128.607V36.016H130.607ZM130.607 33.616C130.607 32.4065 130.213 31.2564 129.057 30.7361L128.236 32.5599C128.36 32.6156 128.607 32.7775 128.607 33.616H130.607ZM129.075 30.7443C128.253 30.3547 127.052 30.216 125.623 30.216V32.216C127.01 32.216 127.825 32.3653 128.219 32.5517L129.075 30.7443ZM160.82 58V59H161.82V58H160.82ZM149.3 58H148.3V59H149.3V58ZM149.3 22V21H148.3V22H149.3ZM160.82 22H161.82V21H160.82V22ZM160.82 57H149.3V59H160.82V57ZM150.3 58V22H148.3V58H150.3ZM149.3 23H160.82V21H149.3V23ZM159.82 22V58H161.82V22H159.82ZM192.901 47.68L193.897 47.5912L193.782 46.3023L192.564 46.7385L192.901 47.68ZM193.765 57.376L194.139 58.3036L194.827 58.0265L194.761 57.2872L193.765 57.376ZM176.149 57.76L175.825 58.706L175.837 58.71L176.149 57.76ZM170.821 54.304L171.582 53.6545L170.821 54.304ZM168.037 48.448L167.06 48.6593L167.063 48.6719L168.037 48.448ZM167.989 31.84L167.012 31.6287L167.01 31.6387L167.989 31.84ZM170.677 25.936L171.452 26.5684L171.458 26.5607L170.677 25.936ZM175.861 22.336L175.521 21.3958L175.516 21.3974L175.861 22.336ZM186.661 21.28L186.555 22.2743L186.573 22.2763L186.592 22.2776L186.661 21.28ZM189.349 21.568L189.203 22.5572L189.208 22.5579L189.349 21.568ZM191.845 22.048L191.603 23.0181L191.626 23.0239L191.649 23.0286L191.845 22.048ZM193.765 22.624L194.747 22.816L194.897 22.0485L194.188 21.7178L193.765 22.624ZM192.037 31.456L191.829 32.4342L192.823 32.6454L193.019 31.648L192.037 31.456ZM179.653 48.592H178.653V49.398L179.441 49.5692L179.653 48.592ZM181.861 48.976L181.732 49.9676L181.755 49.9706L181.778 49.9725L181.861 48.976ZM191.905 47.7688L192.769 57.4648L194.761 57.2872L193.897 47.5912L191.905 47.7688ZM193.392 56.4484C191.081 57.3787 188.177 57.864 184.645 57.864V59.864C188.346 59.864 191.521 59.3573 194.139 58.3036L193.392 56.4484ZM184.645 57.864C181.284 57.864 178.566 57.5016 176.461 56.81L175.837 58.71C178.212 59.4904 181.159 59.864 184.645 59.864V57.864ZM176.474 56.8141C174.373 56.094 172.759 55.0326 171.582 53.6545L170.061 54.9535C171.508 56.6474 173.445 57.89 175.825 58.7059L176.474 56.8141ZM171.582 53.6545C170.393 52.2635 169.527 50.4666 169.012 48.2241L167.063 48.6719C167.635 51.1654 168.625 53.2725 170.061 54.9535L171.582 53.6545ZM169.015 48.2367C168.522 45.9567 168.269 43.2309 168.269 40.048H166.269C166.269 43.3291 166.529 46.2033 167.06 48.6593L169.015 48.2367ZM168.269 40.048C168.269 36.9598 168.506 34.2941 168.969 32.0413L167.01 31.6387C166.513 34.0579 166.269 36.8642 166.269 40.048H168.269ZM168.967 32.0513C169.452 29.8076 170.29 27.9922 171.452 26.5684L169.903 25.3036C168.505 27.0158 167.551 29.1364 167.012 31.6287L168.967 32.0513ZM171.458 26.5607C172.61 25.1211 174.178 24.0201 176.206 23.2746L175.516 21.3974C173.192 22.2519 171.305 23.5509 169.896 25.3113L171.458 26.5607ZM176.202 23.2762C178.265 22.5288 180.924 22.136 184.213 22.136V20.136C180.783 20.136 177.874 20.5432 175.521 21.3958L176.202 23.2762ZM184.213 22.136C184.907 22.136 185.687 22.1813 186.555 22.2743L186.768 20.2857C185.844 20.1867 184.992 20.136 184.213 20.136V22.136ZM186.592 22.2776C187.496 22.3399 188.366 22.4333 189.203 22.5572L189.496 20.5788C188.604 20.4467 187.682 20.348 186.73 20.2824L186.592 22.2776ZM189.208 22.5579C190.074 22.6818 190.872 22.8356 191.603 23.0181L192.088 21.0779C191.282 20.8764 190.416 20.7102 189.491 20.578L189.208 22.5579ZM191.649 23.0286C192.408 23.1804 192.962 23.3529 193.342 23.5302L194.188 21.7178C193.608 21.4471 192.882 21.2356 192.041 21.0674L191.649 23.0286ZM192.784 22.432L191.056 31.264L193.019 31.648L194.747 22.816L192.784 22.432ZM192.245 30.4778C189.636 29.9234 187.276 29.64 185.173 29.64V31.64C187.102 31.64 189.319 31.9006 191.829 32.4342L192.245 30.4778ZM185.173 29.64C183.093 29.64 181.445 29.8226 180.42 30.3145L181.286 32.1175C181.861 31.8414 183.093 31.64 185.173 31.64V29.64ZM180.42 30.3145C179.166 30.9168 178.653 32.1199 178.653 33.52H180.653C180.653 32.6161 180.941 32.2832 181.286 32.1175L180.42 30.3145ZM178.653 33.52V48.592H180.653V33.52H178.653ZM179.441 49.5692C180.204 49.7351 180.968 49.8679 181.732 49.9676L181.991 47.9844C181.283 47.8921 180.575 47.7689 179.866 47.6148L179.441 49.5692ZM181.778 49.9725C182.575 50.0389 183.387 50.072 184.213 50.072V48.072C183.44 48.072 182.684 48.0411 181.944 47.9795L181.778 49.9725ZM184.213 50.072C187.51 50.072 190.522 49.5939 193.238 48.6215L192.564 46.7385C190.096 47.6221 187.317 48.072 184.213 48.072V50.072Z" fill="#E61010"/>
</g>
<defs>
<clipPath id="clip0_42_520">
<rect width="200" height="60" fill="white"/>
</clipPath>
</defs>
</svg>
